# Blender v2.79 (sub 0) OBJ File: ''
# www.blender.org
mtllib longArrow.mtl
o arrowStl
v 0.740957 0.040000 -0.050000
v 0.740957 0.040000 -0.150000
v 0.740957 -0.040000 -0.050000
v 0.740957 -0.040000 -0.150000
v -0.009043 0.040000 -0.050000
v -0.009043 -0.040000 -0.050000
v -0.009043 0.040000 0.050000
v -0.009043 -0.040000 0.050000
v 0.740957 0.040000 0.050000
v 0.740957 -0.040000 0.050000
v 0.740957 0.040000 0.150000
v 0.740957 -0.040000 0.150000
v 0.990957 0.040000 -0.000000
v 0.990957 -0.040000 0.000000
vn -1.0000 0.0000 0.0000
vn 0.0000 0.0000 -1.0000
vn 0.0000 0.0000 1.0000
vn 0.5145 0.0000 0.8575
vn 0.5145 0.0000 -0.8575
vn 0.0000 -1.0000 0.0000
vn -0.0000 1.0000 -0.0000
usemtl None
s off
f 1//1 2//1 3//1
f 3//1 2//1 4//1
f 5//2 1//2 6//2
f 6//2 1//2 3//2
f 7//1 5//1 8//1
f 8//1 5//1 6//1
f 9//3 7//3 10//3
f 10//3 7//3 8//3
f 11//1 9//1 12//1
f 12//1 9//1 10//1
f 13//4 11//4 14//4
f 14//4 11//4 12//4
f 2//5 13//5 4//5
f 4//5 13//5 14//5
f 4//6 14//6 3//6
f 3//6 14//6 10//6
f 3//6 10//6 6//6
f 6//6 10//6 8//6
f 14//6 12//6 10//6
f 2//7 1//7 13//7
f 13//7 1//7 9//7
f 13//7 9//7 11//7
f 1//7 5//7 9//7
f 9//7 5//7 7//7
